HIERARCHY
ROOT Bip001_Pelvis
{
  OFFSET -32.4806 89.7898 -26.4957
  CHANNELS 6 Xposition Yposition Zposition Zrotation Xrotation Yrotation
  JOINT Bip001_Spine
  {
    OFFSET 1.36423e-005 9.82609 -0.0111551
    CHANNELS 6 Xposition Yposition Zposition Zrotation Xrotation Yrotation
    JOINT Bip001_L_Thigh
    {
      OFFSET 10.6209 -9.82611 0.0111728
      CHANNELS 6 Xposition Yposition Zposition Zrotation Xrotation Yrotation
      JOINT Bip001_L_Calf
      {
        OFFSET -0.679921 -42.3289 0.346167
        CHANNELS 6 Xposition Yposition Zposition Zrotation Xrotation Yrotation
        JOINT Bip001_L_Foot
        {
          OFFSET -0.626829 -39.0325 -3.42448
          CHANNELS 6 Xposition Yposition Zposition Zrotation Xrotation Yrotation
          JOINT Bip001_L_Toe0
          {
            OFFSET 0.0510422 -9.82512 12.6447
            CHANNELS 6 Xposition Yposition Zposition Zrotation Xrotation Yrotation
            End Site
            {
              OFFSET 0 0 7.26544
            }
          }
        }
      }
    }
    JOINT Bip001_R_Thigh
    {
      OFFSET -10.6209 -9.82608 0.0111436
      CHANNELS 6 Xposition Yposition Zposition Zrotation Xrotation Yrotation
      JOINT Bip001_R_Calf
      {
        OFFSET 0.679802 -42.3289 0.346
        CHANNELS 6 Xposition Yposition Zposition Zrotation Xrotation Yrotation
        JOINT Bip001_R_Foot
        {
          OFFSET 0.626718 -39.0325 -3.42433
          CHANNELS 6 Xposition Yposition Zposition Zrotation Xrotation Yrotation
          JOINT Bip001_R_Toe0
          {
            OFFSET -0.0511038 -9.82512 12.6447
            CHANNELS 6 Xposition Yposition Zposition Zrotation Xrotation Yrotation
            End Site
            {
              OFFSET 0 0 7.26545
            }
          }
        }
      }
    }
    JOINT Bip001_Spine1
    {
      OFFSET 1.79847e-005 14.0131 1.0446
      CHANNELS 6 Xposition Yposition Zposition Zrotation Xrotation Yrotation
      JOINT Bip001_Spine2
      {
        OFFSET 2.15975e-005 13.9479 -1.62575
        CHANNELS 6 Xposition Yposition Zposition Zrotation Xrotation Yrotation
        JOINT Bip001_Neck
        {
          OFFSET 2.11806e-005 14.8024 -0.47059
          CHANNELS 6 Xposition Yposition Zposition Zrotation Xrotation Yrotation
          JOINT Bip001_L_Clavicle
          {
            OFFSET 5.82727 -0.000557691 0.00804591
            CHANNELS 6 Xposition Yposition Zposition Zrotation Xrotation Yrotation
            JOINT Bip001_L_UpperArm
            {
              OFFSET 11.1065 -0.0577088 0.00186491
              CHANNELS 6 Xposition Yposition Zposition Zrotation Xrotation Yrotation
              JOINT Bip001_L_Forearm
              {
                OFFSET 24.9547 0.0738805 -2.06271
                CHANNELS 6 Xposition Yposition Zposition Zrotation Xrotation Yrotation
                JOINT Bip001_L_Hand
                {
                  OFFSET 31.0071 0.147991 1.57581
                  CHANNELS 6 Xposition Yposition Zposition Zrotation Xrotation Yrotation
                  JOINT Bip001_L_Finger0
                  {
                    OFFSET 5.81383 -2.12477 5.67619
                    CHANNELS 6 Xposition Yposition Zposition Zrotation Xrotation Yrotation
                    End Site
                    {
                      OFFSET 4.0613 -1.38361 0.583161
                    }
                  }
                  JOINT Bip001_L_Finger1
                  {
                    OFFSET 10.6563 -0.67771 -0.190532
                    CHANNELS 6 Xposition Yposition Zposition Zrotation Xrotation Yrotation
                    End Site
                    {
                      OFFSET 5.9618 -0.382229 -0.0756892
                    }
                  }
                }
              }
            }
          }
          JOINT Bip001_R_Clavicle
          {
            OFFSET -5.82727 -0.000541535 0.00802985
            CHANNELS 6 Xposition Yposition Zposition Zrotation Xrotation Yrotation
            JOINT Bip001_R_UpperArm
            {
              OFFSET -11.1066 -0.0576902 0.00183363
              CHANNELS 6 Xposition Yposition Zposition Zrotation Xrotation Yrotation
              JOINT Bip001_R_Forearm
              {
                OFFSET -24.9541 0.0775788 -2.07299
                CHANNELS 6 Xposition Yposition Zposition Zrotation Xrotation Yrotation
                JOINT Bip001_R_Hand
                {
                  OFFSET -31.0072 0.14794 1.57684
                  CHANNELS 6 Xposition Yposition Zposition Zrotation Xrotation Yrotation
                  JOINT Bip001_R_Finger0
                  {
                    OFFSET -5.81385 -2.12475 5.67617
                    CHANNELS 6 Xposition Yposition Zposition Zrotation Xrotation Yrotation
                    End Site
                    {
                      OFFSET -4.0613 -1.38359 0.583149
                    }
                  }
                  JOINT Bip001_R_Finger1
                  {
                    OFFSET -10.6563 -0.677681 -0.190562
                    CHANNELS 6 Xposition Yposition Zposition Zrotation Xrotation Yrotation
                    End Site
                    {
                      OFFSET -5.9618 -0.382212 -0.0757058
                    }
                  }
                }
              }
            }
          }
          JOINT Bip001_Head
          {
            OFFSET 1.05455e-005 10.8408 1.98027
            CHANNELS 6 Xposition Yposition Zposition Zrotation Xrotation Yrotation
            End Site
            {
              OFFSET 2.78438e-005 20.0777 -2.67046e-005
            }
          }
        }
      }
    }
  }
}
MOTION
Frames:	4
Frame Time:	0.0333333
-26.5936 92.7129 -38.3441 -0.0212504 2.02083 -0.0406819 1.36423e-005 9.82609 -0.0111551 0.371015 0.779346 0.0359253 10.6209 -9.82611 0.0111728 2.78882 -0.420182 14.9881 -0.679921 -42.3289 0.346167 -0.0519714 0.364391 -0.0956994 -0.626829 -39.0325 -3.42448 -0.919593 0.0700889 0.0681343 0.0510422 -9.82512 12.6447 0.0416261 -0.0969614 -0.102496 -10.6209 -9.82608 0.0111436 -4.35358 -0.395168 -12.0363 0.679802 -42.3289 0.346 0.0850422 0.253128 0.0856533 0.626718 -39.0325 -3.42433 0.86443 0.318164 -0.0793769 -0.0511038 -9.82511 12.6447 -0.0188695 -0.272794 -0.00202292 1.79847e-005 14.0131 1.0446 0.741624 1.57254 0.0667648 2.15975e-005 13.9479 -1.62575 0.741624 1.57254 0.0667648 2.11806e-005 14.8024 -0.47059 2.65594 18.3075 -1.14699 5.82727 -0.000557691 0.00804591 -3.1387 -18.188 1.87722 11.1065 -0.0577088 0.00186491 -77.469 6.97649 -4.42081 24.9547 0.0738805 -2.0627 -4.10372 -1.39917 -12.4748 31.0071 0.147991 1.57581 0.52059 1.49012 0.324183 5.81383 -2.12477 5.67619 -9.93923e-016 1.59028e-015 -1.59028e-015 10.6563 -0.67771 -0.190532 -1.98785e-016 0 -0 -5.82727 -0.000541535 0.00802985 -2.62019 -18.2206 -1.76087 -11.1066 -0.0576902 0.00183363 81.8197 7.73077 2.93528 -24.9541 0.0775788 -2.07299 0.998298 -0.931458 7.02325 -31.0072 0.14794 1.57684 -5.07952 -0.0157352 -0.349459 -5.81385 -2.12475 5.67617 -9.93923e-016 7.95139e-016 -1.59028e-015 -10.6563 -0.677681 -0.190562 -1.09332e-015 0 -7.95139e-016 1.05455e-005 10.8408 1.98027 -2.45294 -16.0425 0.231461 
-26.5504 92.6947 -38.0227 0.000593178 1.9722 0.0217034 1.36423e-005 9.82609 -0.0111551 0.354104 0.781087 0.0111713 10.6209 -9.82611 0.0111728 2.74334 -0.207351 14.9564 -0.679921 -42.3289 0.346167 -0.0203844 0.471933 -0.0870845 -0.626829 -39.0325 -3.42448 -0.815347 -0.231129 0.0681348 0.0510422 -9.82512 12.6447 0.111331 0.116072 -0.165858 -10.6209 -9.82608 0.0111436 -4.33179 -0.224654 -12.08 0.679802 -42.3289 0.346 -0.0661565 0.467803 0.000432304 0.626718 -39.0325 -3.42433 0.828446 -0.152603 -0.0740015 -0.0511038 -9.82511 12.6447 -0.113528 0.0120979 0.194169 1.79847e-005 14.0131 1.0446 0.708197 1.56225 0.0175201 2.15975e-005 13.9479 -1.62575 0.708193 1.56224 0.0175199 2.11806e-005 14.8024 -0.47059 2.77197 18.2658 -1.08477 5.82727 -0.000557691 0.00804591 -3.22237 -18.1379 1.76942 11.1065 -0.0577088 0.00186491 -77.5408 7.46685 -4.45096 24.9547 0.0738805 -2.0627 -3.97178 -1.5308 -11.9151 31.0071 0.147991 1.57581 0.367925 1.57268 0.205733 5.81383 -2.12477 5.67619 -6.62086e-032 -2.38542e-015 -1.59028e-015 10.6563 -0.67771 -0.190532 -1.10348e-031 -3.97569e-015 -1.59028e-015 -5.82727 -0.000541535 0.00802985 -2.46979 -18.1627 -1.71607 -11.1066 -0.0576902 0.00183363 81.7581 7.50022 2.38633 -24.9541 0.0775788 -2.07299 0.951501 -0.676209 7.29006 -31.0072 0.14794 1.57684 -5.40831 -0.173313 -0.529969 -5.81385 -2.12475 5.67617 -1.68967e-015 0 -3.97569e-016 -10.6563 -0.677681 -0.190562 -2.43511e-015 0 -0 1.05455e-005 10.8408 1.98027 -2.62493 -16.4054 0.370702 
-26.5281 92.671 -37.6383 -0.0357581 1.91782 -0.0345113 1.36423e-005 9.82609 -0.0111551 0.360983 0.799247 -0.00232036 10.6209 -9.82611 0.0111728 2.76945 0.0279941 14.9537 -0.679921 -42.3289 0.346167 -0.00106569 0.623647 0.0512682 -0.626829 -39.0325 -3.42448 -0.715938 -0.548394 0.0686235 0.0510422 -9.82512 12.6447 0.233998 0.260064 -0.384152 -10.6209 -9.82608 0.0111436 -4.25913 -0.105139 -12.0728 0.679802 -42.3289 0.346 -0.197953 0.755811 0.197149 0.626718 -39.0325 -3.42433 0.81145 -0.59503 -0.0687219 -0.0511038 -9.82511 12.6447 0.0983294 0.213683 -0.143357 1.79847e-005 14.0131 1.0446 0.722113 1.59847 -0.00967604 2.15975e-005 13.9479 -1.62575 0.722113 1.59847 -0.00967603 2.11806e-005 14.8024 -0.47059 2.64065 18.2936 -0.827659 5.82727 -0.000557691 0.00804591 -3.24781 -18.1419 1.42705 11.1065 -0.0577088 0.00186491 -77.4692 8.05388 -4.33435 24.9547 0.0738805 -2.0627 -3.93811 -0.661641 -11.7342 31.0071 0.147991 1.57581 0.879205 1.43558 0.0941048 5.81383 -2.12477 5.67619 1.98785e-016 -4.77083e-015 -3.18055e-015 10.6563 -0.67771 -0.190532 1.19271e-015 -3.18056e-015 -3.18055e-015 -5.82727 -0.000541535 0.00802985 -2.24749 -18.1647 -1.74383 -11.1066 -0.0576902 0.00183363 81.7848 7.40956 1.91593 -24.9541 0.0775788 -2.07299 0.937689 -1.2531 7.76073 -31.0072 0.14794 1.57684 -5.36047 -0.135017 -0.445135 -5.81385 -2.12475 5.67617 -9.93923e-017 7.95139e-016 -0 -10.6563 -0.677681 -0.190562 -1.88845e-015 0 3.97569e-016 1.05455e-005 10.8408 1.98027 -2.71316 -16.9402 0.567866 
-26.5598 92.6341 -37.2688 -0.0377263 1.91489 -0.198754 1.36423e-005 9.82609 -0.0111551 0.354179 0.814367 0.0017617 10.6209 -9.82611 0.0111728 2.81197 0.284864 14.9779 -0.679921 -42.3289 0.346167 -0.0557029 0.608411 0.0139399 -0.626829 -39.0325 -3.42448 -0.788924 -0.653271 0.071197 0.0510422 -9.82512 12.6447 0.116437 0.458157 -0.11698 -10.6209 -9.82608 0.0111436 -4.17609 -0.125069 -11.9541 0.679802 -42.3289 0.346 -0.384823 1.21034 0.169087 0.626718 -39.0325 -3.42433 0.779541 -0.95453 -0.0631786 -0.0511038 -9.82511 12.6447 0.0427633 0.0232309 -0.0702341 1.79847e-005 14.0131 1.0446 0.708435 1.62873 -0.00148185 2.15975e-005 13.9479 -1.62575 0.708434 1.62873 -0.00148185 2.11806e-005 14.8024 -0.47059 2.72802 18.3461 -0.619064 5.82727 -0.000557691 0.00804591 -3.381 -18.1822 1.13313 11.1065 -0.0577088 0.00186491 -77.4187 9.03633 -4.18748 24.9547 0.0738805 -2.0627 -4.1038 -1.07758 -11.9209 31.0071 0.147991 1.57581 0.773049 1.52723 -0.07025 5.81383 -2.12477 5.67619 1.59028e-015 -1.59028e-015 1.59028e-015 10.6563 -0.67771 -0.190532 9.93923e-016 -3.18056e-015 -0 -5.82727 -0.000541535 0.00802985 -2.08178 -18.1955 -1.72569 -11.1066 -0.0576902 0.00183363 81.7069 7.58541 1.43407 -24.9541 0.0775788 -2.07299 0.855633 -1.59092 8.43453 -31.0072 0.14794 1.57684 -5.5229 -0.175003 -0.422188 -5.81385 -2.12475 5.67617 -2.03754e-015 2.38542e-015 -0 -10.6563 -0.677681 -0.190562 -5.46658e-016 7.95139e-016 -0 1.05455e-005 10.8408 1.98027 -2.98599 -17.6039 0.832767 
